<svg width="18" height="18" viewBox="0 0 18 18" fill="none" xmlns="http://www.w3.org/2000/svg">
<path id="Vector (Stroke)" fill-rule="evenodd" clip-rule="evenodd" d="M5.10315 0.629262C6.10611 0.213823 7.18107 0 8.26667 0C9.35226 0 10.4272 0.213823 11.4302 0.629262C12.4331 1.0447 13.3445 1.65362 14.1121 2.42125C14.8797 3.18888 15.4886 4.10019 15.9041 5.10315C16.3195 6.10611 16.5333 7.18107 16.5333 8.26667C16.5333 9.35226 16.3195 10.4272 15.9041 11.4302C15.591 12.1859 15.1682 12.8896 14.6503 13.519L17.3657 16.2343C17.6781 16.5467 17.6781 17.0533 17.3657 17.3657C17.0533 17.6781 16.5467 17.6781 16.2343 17.3657L13.519 14.6503C12.8896 15.1682 12.1859 15.591 11.4302 15.9041C10.4272 16.3195 9.35226 16.5333 8.26667 16.5333C7.18107 16.5333 6.10611 16.3195 5.10315 15.9041C4.10019 15.4886 3.18888 14.8797 2.42125 14.1121C1.65362 13.3445 1.0447 12.4331 0.629263 11.4302C0.213824 10.4272 0 9.35226 0 8.26667C0 7.18107 0.213824 6.10611 0.629263 5.10315C1.0447 4.10019 1.65362 3.18888 2.42125 2.42125C3.18888 1.65362 4.10019 1.0447 5.10315 0.629262ZM8.26667 1.6C7.39119 1.6 6.52428 1.77244 5.71544 2.10747C4.90661 2.4425 4.17168 2.93356 3.55262 3.55262C2.93356 4.17168 2.4425 4.90661 2.10747 5.71544C1.77244 6.52428 1.6 7.39119 1.6 8.26667C1.6 9.14215 1.77244 10.0091 2.10747 10.8179C2.4425 11.6267 2.93356 12.3617 3.55262 12.9807C4.17168 13.5998 4.90661 14.0908 5.71544 14.4259C6.52428 14.7609 7.39119 14.9333 8.26667 14.9333C9.14215 14.9333 10.0091 14.7609 10.8179 14.4259C11.6267 14.0908 12.3617 13.5998 12.9807 12.9807C13.5998 12.3617 14.0908 11.6267 14.4259 10.8179C14.7609 10.0091 14.9333 9.14215 14.9333 8.26667C14.9333 7.39119 14.7609 6.52428 14.4259 5.71544C14.0908 4.90661 13.5998 4.17168 12.9807 3.55262C12.3617 2.93356 11.6267 2.4425 10.8179 2.10747C10.0091 1.77244 9.14215 1.6 8.26667 1.6Z" fill="white"/>
</svg>
